<svg id="Layer_1" enable-background="new 0 0 512 512" height="512" viewBox="0 0 512 512" width="512" xmlns="http://www.w3.org/2000/svg"><path d="m157.385 148h-83.385c-40.804 0-74-33.196-74-74s33.196-74 74-74h84c11.046 0 20 8.954 20 20s-8.954 20-20 20h-84c-18.748 0-34 15.252-34 34s15.252 34 34 34h83.385c11.046 0 20 8.954 20 20s-8.954 20-20 20zm354.615-74c0-40.804-33.196-74-74-74h-200c-11.046 0-20 8.954-20 20s8.954 20 20 20h200c18.748 0 34 15.252 34 34s-15.252 34-34 34h-200.615c-11.046 0-20 8.954-20 20s8.954 20 20 20h200.615c40.804 0 74-33.196 74-74zm-1 182c0-40.804-33.196-74-74-74h-28c-11.046 0-20 8.954-20 20s8.954 20 20 20h28c18.748 0 34 15.252 34 34s-15.252 34-34 34h-28c-11.046 0-20 8.954-20 20s8.954 20 20 20h28c40.804 0 74-33.196 74-74zm-162 54c0-11.046-8.954-20-20-20h-255c-18.748 0-34-15.252-34-34s15.252-34 34-34h255c11.046 0 20-8.954 20-20s-8.954-20-20-20h-255c-40.804 0-74 33.196-74 74s33.196 74 74 74h255c11.046 0 20-8.954 20-20zm162 128c0-40.804-33.196-74-74-74h-150c-11.046 0-20 8.954-20 20s8.954 20 20 20h150c18.748 0 34 15.252 34 34s-15.252 34-34 34h-150c-11.046 0-20 8.954-20 20s8.954 20 20 20h150c40.804 0 74-33.196 74-74zm-284 54c0-11.046-8.954-20-20-20h-133c-18.748 0-34-15.252-34-34s15.252-34 34-34h133c11.046 0 20-8.954 20-20s-8.954-20-20-20h-133c-40.804 0-74 33.196-74 74s33.196 74 74 74h133c11.046 0 20-8.954 20-20z"/></svg>